<?xml version="1.0" standalone="no"?>
<!DOCTYPE svg PUBLIC "-//W3C//DTD SVG 20010904//EN"
 "http://www.w3.org/TR/2001/REC-SVG-20010904/DTD/svg10.dtd">
<svg version="1.0" xmlns="http://www.w3.org/2000/svg"
 width="1154.000000pt" height="1154.000000pt" viewBox="0 0 1154.000000 1154.000000"
 preserveAspectRatio="xMidYMid meet">
<metadata>
Created by potrace 1.11, written by Peter Selinger 2001-2013
</metadata>
<g transform="translate(0.000000,1154.000000) scale(0.100000,-0.100000)"
fill="#000000" stroke="none">
<path d="M7129 11507 c-105 -29 -201 -111 -311 -264 -263 -366 -474 -847 -464
-1060 8 -160 142 -305 449 -485 6 -4 41 -25 77 -46 36 -21 85 -50 110 -64 25
-14 104 -58 175 -98 72 -40 150 -84 175 -98 366 -203 558 -328 780 -506 726
-585 1217 -1376 1408 -2266 62 -287 86 -525 86 -835 0 -172 -8 -370 -18 -435
-3 -14 -8 -52 -12 -85 -4 -33 -8 -62 -9 -65 -1 -3 -5 -30 -9 -60 -15 -99 -30
-173 -66 -320 -113 -456 -293 -865 -553 -1255 -75 -113 -214 -297 -282 -374
-374 -424 -765 -728 -1260 -978 -135 -69 -403 -185 -456 -198 -23 -6 -95 -67
-280 -239 -36 -34 -87 -81 -115 -106 -27 -25 -96 -88 -153 -140 -57 -52 -114
-104 -126 -115 -26 -25 -201 -184 -226 -206 -10 -9 -62 -56 -115 -105 -53 -49
-105 -96 -114 -104 -9 -8 -63 -58 -120 -110 -57 -52 -111 -102 -121 -111 -17
-14 -128 -117 -258 -236 -25 -24 -43 -43 -38 -44 4 -1 10 -2 15 -3 4 -1 43 -6
87 -10 44 -5 89 -10 100 -11 11 -2 51 -6 89 -10 38 -3 79 -7 90 -10 12 -2 50
-7 86 -10 59 -5 455 -48 555 -60 73 -8 219 -24 280 -30 33 -3 76 -8 95 -10 19
-3 53 -7 75 -9 142 -16 316 -35 365 -41 19 -2 62 -7 95 -10 33 -3 71 -7 85
-10 14 -2 57 -7 95 -10 39 -3 77 -8 86 -11 13 -3 215 64 284 95 11 5 76 33
145 61 129 54 471 219 595 288 379 209 763 480 1100 776 82 72 371 358 461
456 432 473 819 1094 1063 1706 125 316 262 787 306 1054 3 19 12 71 20 115
17 93 41 271 50 365 4 36 9 76 11 90 24 148 24 918 0 1070 -2 14 -7 56 -10 93
-7 77 -9 88 -31 242 -107 724 -377 1467 -763 2105 -166 273 -423 628 -574 793
-16 18 -52 60 -81 94 -68 80 -410 419 -512 508 -44 39 -82 72 -85 75 -4 5 -86
72 -130 107 -158 127 -351 268 -505 368 -49 32 -113 73 -142 92 -55 36 -558
317 -763 427 -264 141 -482 246 -547 264 -81 23 -181 26 -244 9z"/>
<path d="M3975 11269 c-16 -6 -39 -14 -50 -19 -11 -5 -58 -23 -104 -40 -235
-88 -592 -256 -831 -392 -506 -287 -909 -595 -1315 -1002 -196 -196 -312 -327
-451 -506 -48 -63 -91 -117 -94 -120 -10 -10 -84 -118 -185 -270 -388 -586
-678 -1286 -819 -1975 -15 -75 -37 -194 -42 -230 -3 -16 -9 -59 -15 -95 -5
-36 -12 -78 -14 -95 -4 -39 -23 -206 -30 -270 -28 -259 -22 -889 10 -1110 2
-16 7 -59 11 -95 5 -53 58 -376 80 -494 3 -16 21 -92 40 -170 188 -767 528
-1481 1004 -2112 248 -328 464 -562 815 -885 155 -142 459 -375 691 -531 173
-116 313 -199 614 -363 500 -274 828 -438 917 -461 207 -51 350 5 500 196 273
350 520 899 507 1130 -5 85 -58 183 -141 260 -57 53 -309 230 -329 230 -3 0
-18 8 -32 19 -23 15 -281 160 -537 301 -481 264 -760 467 -1080 785 -506 502
-857 1109 -1039 1796 -47 180 -94 441 -110 614 -3 33 -8 89 -12 125 -7 80 -7
438 0 540 7 92 16 186 22 221 2 15 6 47 9 70 19 156 74 407 131 599 25 84 104
307 129 365 8 17 30 68 50 115 20 47 66 141 102 210 387 735 980 1321 1717
1699 174 89 387 184 487 217 15 5 77 56 139 114 62 58 121 112 132 122 10 9
51 46 91 84 96 89 192 179 253 234 27 25 110 102 184 170 159 147 131 121 265
245 59 55 119 111 134 124 81 74 255 236 320 297 42 39 90 83 106 97 17 14 28
27 25 30 -3 3 -27 8 -55 11 -27 3 -66 8 -85 11 -19 2 -66 7 -104 10 -38 3 -79
7 -90 10 -12 2 -53 7 -93 10 -40 3 -87 7 -105 10 -18 2 -64 6 -103 10 -69 6
-87 8 -175 19 -25 3 -79 9 -120 12 -41 3 -77 7 -80 9 -3 2 -48 6 -100 10 -52
4 -97 8 -100 10 -3 2 -43 6 -90 10 -47 3 -92 8 -100 10 -8 2 -46 7 -85 10 -38
3 -132 12 -207 20 -513 55 -526 56 -563 44z"/>
<path d="M3899 8116 c-2 -2 -35 -6 -74 -10 -404 -37 -777 -199 -992 -430 -190
-204 -270 -473 -227 -765 28 -194 76 -296 199 -429 147 -159 344 -252 645
-305 185 -33 179 -32 370 -52 25 -2 81 -7 125 -10 44 -2 118 -7 165 -11 47 -3
128 -7 181 -9 307 -11 523 -46 658 -107 92 -41 130 -73 158 -135 21 -46 24
-65 20 -121 -7 -85 -8 -90 -35 -134 -89 -145 -359 -256 -713 -294 -105 -12
-360 -11 -448 2 -265 37 -529 115 -726 216 -155 79 -223 149 -237 243 -3 18
-43 55 -61 55 -8 0 -23 -32 -142 -295 -42 -93 -87 -192 -100 -220 -13 -27 -39
-84 -58 -125 -54 -118 -54 -114 -5 -143 l43 -25 23 23 c26 27 72 35 117 21 17
-5 89 -34 160 -66 230 -101 405 -153 630 -185 22 -4 47 -8 55 -10 106 -27 784
-27 950 0 14 2 46 6 72 9 343 40 675 171 878 346 l55 48 -1 -888 c-1 -488 -4
-900 -8 -915 -4 -15 -12 -33 -19 -39 -19 -19 -73 -38 -111 -39 -31 -1 -35 -4
-38 -31 -1 -17 -2 -44 0 -59 l3 -28 1272 4 c700 1 1281 6 1293 9 12 3 45 9 74
13 106 13 282 66 390 117 253 120 429 325 486 566 11 48 13 285 3 337 -6 28
-12 61 -15 74 -8 41 -53 142 -84 190 -94 147 -281 279 -518 368 -73 27 -74 27
-45 40 182 78 323 163 412 246 85 81 150 207 166 324 8 57 8 210 1 253 -33
181 -122 325 -277 445 -184 143 -467 243 -794 280 -33 4 -69 10 -80 13 -11 3
-496 7 -1077 9 l-1057 4 -58 38 c-188 125 -405 191 -768 235 -66 9 -136 15
-220 21 -44 3 -107 8 -140 10 -33 3 -98 7 -145 10 -215 13 -256 15 -275 19
-11 2 -51 7 -90 11 -38 4 -72 8 -75 10 -3 2 -23 6 -45 9 -186 30 -348 112
-403 204 -24 41 -27 57 -27 132 0 101 19 143 93 203 85 68 258 137 383 153 24
3 50 7 57 9 76 25 489 25 582 0 8 -2 33 -6 55 -10 139 -20 376 -95 507 -160
207 -103 293 -190 322 -327 4 -18 16 -29 38 -37 17 -6 32 -10 33 -9 1 2 18 32
38 68 39 73 244 448 287 525 79 144 100 184 100 192 0 4 -17 17 -38 29 -36 20
-38 20 -65 4 -21 -13 -45 -17 -95 -15 -87 4 -96 6 -248 64 -197 75 -511 165
-684 195 -19 3 -46 8 -60 11 -14 3 -43 8 -65 10 -22 3 -62 8 -90 11 -56 7
-560 16 -566 10z m3826 -2180 c87 -15 200 -47 249 -70 68 -32 103 -67 134
-135 23 -48 26 -70 26 -156 0 -86 -3 -108 -26 -156 -41 -90 -93 -129 -223
-168 -150 -45 -221 -49 -922 -50 -535 -2 -663 1 -664 11 -1 17 -1 709 0 726 1
11 126 13 694 9 380 -2 710 -7 732 -11z m15 -1291 c19 -4 53 -10 75 -15 192
-40 314 -121 374 -251 54 -115 44 -271 -24 -367 -64 -91 -192 -168 -325 -196
-41 -9 -88 -19 -105 -23 -16 -3 -346 -8 -732 -10 -578 -4 -703 -2 -704 9 -1
17 -1 850 0 861 1 10 1391 3 1441 -8z"/>
</g>
</svg>
